<?xml version="1.0" standalone="no"?><!DOCTYPE svg PUBLIC "-//W3C//DTD SVG 1.1//EN" "http://www.w3.org/Graphics/SVG/1.1/DTD/svg11.dtd"><svg t="1637911757592" class="icon" viewBox="0 0 1024 1024" version="1.1" xmlns="http://www.w3.org/2000/svg" p-id="32244" xmlns:xlink="http://www.w3.org/1999/xlink" width="19" height="19"><defs><style type="text/css"></style></defs><path d="M819.2 0H204.8c-10.24 0-17.066667 6.826667-17.066667 17.066667v989.866666c0 6.826667 3.413333 13.653333 10.24 17.066667 6.826667 0 13.653333 0 20.48-3.413333l293.546667-293.546667 293.546667 293.546667c3.413333 3.413333 6.826667 3.413333 13.653333 3.413333h6.826667c6.826667-3.413333 10.24-10.24 10.24-17.066667V17.066667c0-10.24-6.826667-17.066667-17.066667-17.066667z m-95.573333 307.2l-116.053334 85.333333 44.373334 136.533334c3.413333 6.826667 0 13.653333-6.826667 20.48-3.413333 3.413333-6.826667 3.413333-10.24 3.413333s-6.826667 0-10.24-3.413333L512 460.8 395.946667 546.133333c-6.826667 3.413333-13.653333 3.413333-20.48 0-6.826667-3.413333-6.826667-13.653333-6.826667-20.48l44.373333-136.533333L300.373333 307.2c-6.826667-6.826667-10.24-13.653333-6.826666-20.48 3.413333-6.826667 10.24-10.24 17.066666-10.24h143.36l44.373334-136.533333c3.413333-13.653333 27.306667-13.653333 34.133333 0l44.373333 136.533333h143.36c6.826667 0 13.653333 3.413333 17.066667 10.24-3.413333 6.826667-6.826667 13.653333-13.653333 20.48z" fill="#bfbfbf" p-id="32245"></path></svg>