<?xml version="1.0" standalone="no"?><!DOCTYPE svg PUBLIC "-//W3C//DTD SVG 1.1//EN" "http://www.w3.org/Graphics/SVG/1.1/DTD/svg11.dtd"><svg t="1637910686022" class="icon" viewBox="0 0 1024 1024" version="1.1" xmlns="http://www.w3.org/2000/svg" p-id="17034" xmlns:xlink="http://www.w3.org/1999/xlink" width="19" height="19"><defs><style type="text/css"></style></defs><path d="M85.333333 955.733333a17.083733 17.083733 0 0 1-17.066666-17.066666V85.333333a17.066667 17.066667 0 0 1 17.066666-17.066666h853.333334a17.066667 17.066667 0 0 1 17.066666 17.066666v853.333334a17.066667 17.066667 0 0 1-23.415466 15.837866l-419.4816-168.123733-421.1712 168.1408A17.032533 17.032533 0 0 1 85.333333 955.733333zM102.4 102.4v811.076267l404.1216-161.3312a16.964267 16.964267 0 0 1 12.680533 0.017066L921.6 913.425067V102.4H102.4z m549.546667 539.306667a16.9472 16.9472 0 0 1-6.8608-1.4336l-133.137067-58.453334-123.733333 53.367467a17.066667 17.066667 0 0 1-23.722667-17.425067l13.6704-131.089066-97.621333-99.2256a17.066667 17.066667 0 0 1 8.8576-28.706134l143.342933-28.347733 66.116267-116.906667c3.003733-5.307733 8.6016-8.6016 14.711466-8.669866 5.6832-0.3072 11.741867 3.140267 14.865067 8.3968l71.918933 122.026666 136.413867 23.415467a17.032533 17.032533 0 0 1 9.454933 28.586667l-98.269866 103.1168 20.855466 131.601066A17.032533 17.032533 0 0 1 651.946667 641.706667zM512 546.133333c2.338133 0 4.676267 0.477867 6.8608 1.4336l111.342933 48.878934-17.288533-109.090134a17.066667 17.066667 0 0 1 4.5056-14.455466l82.005333-86.050134-112.657066-19.336533a16.964267 16.964267 0 0 1-11.810134-8.157867L514.013867 256l-55.432534 97.9968a17.117867 17.117867 0 0 1-11.554133 8.3456l-119.978667 23.722667 81.066667 82.397866c3.566933 3.6352 5.3248 8.669867 4.8128 13.738667l-11.485867 110.114133 103.799467-44.765866A16.622933 16.622933 0 0 1 512 546.133333z" p-id="17035" fill="#8B8C8B"></path></svg>