<?xml version="1.0" standalone="no"?><!DOCTYPE svg PUBLIC "-//W3C//DTD SVG 1.1//EN" "http://www.w3.org/Graphics/SVG/1.1/DTD/svg11.dtd"><svg t="1636373677946" class="icon" viewBox="0 0 1024 1024" version="1.1" xmlns="http://www.w3.org/2000/svg" p-id="3310" width="36" height="36" xmlns:xlink="http://www.w3.org/1999/xlink"><defs><style type="text/css"></style></defs><path d="M56.348603 495.696089c50.627933-0.42905 101.112849-0.143017 151.740782-0.143016 49.626816 0 99.253631-0.286034 148.737431 0.143016m-207.374302-301.479329c-0.143017-33.465922-28.174302-60.92514-61.640223-60.353073-34.324022 0.572067-59.924022 26.887151-59.781006 61.78324 0.143017 34.467039 26.315084 60.210056 61.068156 59.781006 34.467039-0.42905 60.639106-26.887151 60.353073-61.211173z m502.560894 398.301676c49.054749 0 97.53743 0.858101 146.020112-0.286034 24.598883-0.572067 42.762011-21.595531 44.049162-46.051396 1.144134-23.454749-16.875978-48.768715-40.18771-49.626816-49.197765-1.859218-98.538547-0.572067-149.881564-0.572067v96.536313z m-295.186592-96.822347c-49.626816-0.42905-99.253631-0.143017-148.737431-0.143016-50.627933 0-101.112849-0.286034-151.740782 0.143016m0 0c-35.897207 0.286034-56.348603 18.306145-56.348603 48.625699 0.143017 29.032402 20.022346 47.624581 54.060335 47.767597 101.112849 0.42905 202.225698 0.42905 303.338548 0 34.037989-0.143017 54.775419-18.735196 55.204469-47.19553 0.572067-30.03352-20.451397-48.911732-55.919553-49.197766M61.497207 722.663687c70.364246 81.23352 159.892737 115.843575 267.44134 105.117319 137.296089-13.729609 248.420112-115.414525 264.008939-243.557542 17.734078-145.877095-59.637989-269.586592-197.506145-315.494972-53.202235-17.734078-53.202235-17.734078-53.202235-72.795531 0-13.586592 0.715084-27.316201-0.143017-40.902793C340.379888 124.424581 320.929609 104.545251 293.184358 104.116201c-27.173184-0.42905-46.623464 16.732961-49.340783 46.909497-2.145251 24.169832-2.431285 48.625698-1.001117 72.795531 1.287151 22.882682-4.576536 33.608939-29.461452 39.758659-62.927374 15.588827-115.700559 49.769832-156.460336 100.969833-16.589944 20.880447-15.44581 47.624581 1.430168 63.213407 19.021229 17.591061 44.478212 15.731844 64.786592-4.719553 8.867039-9.010056 17.018994-18.735196 26.315084-27.316201 103.687151-95.821229 287.177654-61.211173 341.237989 65.35866 30.748603 72.080447 23.597765 142.015642-26.315084 202.940782-55.63352 67.932961-130.717318 87.669274-215.240223 73.367597-50.913966-8.581006-90.100559-37.899441-125.139665-75.083798-10.15419-10.726257-30.748603-17.877095-45.336313-16.160894-11.584358 1.430168-28.460335 17.448045-30.319553 29.175419-2.574302 14.873743 3.146369 35.75419 13.157542 47.338547z m495.982123 60.782123c66.64581 40.044693 136.008939 52.487151 211.235754 43.477095 174.051397-20.880447 291.182123-190.069274 245.273743-358.972067-30.03352-110.408939-104.688268-177.197765-213.953073-204.943017-24.884916-6.292737-33.608939-16.160894-31.32067-40.902793 2.002235-21.16648 0.715084-42.762011 0.286033-64.214525-0.715084-33.322905-19.164246-53.345251-48.625698-53.774302-29.461453-0.42905-48.339665 19.593296-48.911732 52.773184-0.42905 23.311732-1.287151 46.76648 0.286034 70.078213 1.430168 21.309497-6.292737 30.176536-27.316201 36.040223-29.890503 8.294972-58.350838 22.310615-88.956425 34.467039 20.165363 27.173184 36.326257 48.768715 54.060335 72.652514 108.835754-57.778771 223.535196-21.738547 280.455866 45.47933 54.203352 64.071508 61.068156 162.610056 13.729609 233.689385-25.6 38.471508-60.92514 65.072626-104.688268 79.803352-65.644693 22.167598-129.430168 16.160894-189.640224-16.017877-18.163128 24.455866-34.610056 46.909497-51.915083 70.364246z m422.328491-587.798883c0.286034-34.610056-25.456983-61.35419-59.494972-61.78324-33.751955-0.42905-61.35419 26.601117-61.640223 60.353073-0.286034 34.610056 25.743017 61.068156 60.210056 61.35419 34.896089 0.286034 60.639106-25.027933 60.925139-59.924023z m-409.313966-0.143016c0.572067-33.322905-27.173184-61.640223-60.353073-61.783241-34.896089-0.143017-60.353073 25.17095-60.782123 60.49609-0.42905 35.32514 24.598883 61.211173 59.494972 61.211173 34.896089 0 61.068156-25.313966 61.640224-59.924022z m0 0" p-id="3311" fill="#ff463c"></path></svg>