<?xml version="1.0" standalone="no"?><!DOCTYPE svg PUBLIC "-//W3C//DTD SVG 1.1//EN" "http://www.w3.org/Graphics/SVG/1.1/DTD/svg11.dtd"><svg t="1638187681379" class="icon" viewBox="0 0 1024 1024" version="1.1" xmlns="http://www.w3.org/2000/svg" p-id="24611" xmlns:xlink="http://www.w3.org/1999/xlink" width="21" height="21"><defs><style type="text/css"></style></defs><path d="M618.63424 628.86912l357.34528 0c16.896 0 30.59712-13.70624 30.59712-30.60224s-13.70112-30.60224-30.59712-30.60224l-357.34528 0c-16.90624 0-30.60224 13.70624-30.60224 30.60224S601.728 628.86912 618.63424 628.86912z" p-id="24612" fill="#FFFFFF"></path><path d="M975.97952 756.36736l-357.34528 0c-16.90624 0-30.60224 13.70112-30.60224 30.59712 0 16.90112 13.696 30.60224 30.60224 30.60224l357.34528 0c16.896 0 30.59712-13.70112 30.59712-30.60224C1006.57664 770.06336 992.87552 756.36736 975.97952 756.36736z" p-id="24613" fill="#FFFFFF"></path><path d="M975.97952 937.1392l-357.34528 0c-16.90624 0-30.60224 13.70112-30.60224 30.59712s13.696 30.60224 30.60224 30.60224l357.34528 0c16.896 0 30.59712-13.70624 30.59712-30.60224S992.87552 937.1392 975.97952 937.1392z" p-id="24614" fill="#FFFFFF"></path><path d="M760.98048 389.92896l113.7664 0c67.48672 0 122.38848-54.90688 122.38848-122.38848L997.13536 153.7792c0-67.48672-54.90688-122.38848-122.38848-122.38848l-113.7664 0c-67.48672 0-122.38848 54.90176-122.38848 122.38848l0 113.76128C638.592 335.02208 693.49376 389.92896 760.98048 389.92896zM699.78624 153.7792c0-33.7408 27.4432-61.19424 61.19424-61.19424l113.7664 0c33.75616 0 61.19424 27.45344 61.19424 61.19424l0 113.76128c0 33.7408-27.43808 61.19424-61.19424 61.19424l-113.7664 0c-33.75104 0-61.19424-27.45344-61.19424-61.19424L699.78624 153.7792z" p-id="24615" fill="#FFFFFF"></path><path d="M337.28 0.80896 179.328 0.80896c-87.15776 0-158.06464 70.90688-158.06464 158.06464L21.26336 316.8256c0 87.15776 70.90688 158.06464 158.06464 158.06464l157.95712 0c87.15776 0 158.06464-70.90688 158.06464-158.06464L495.34976 158.86848C495.34976 71.71072 424.43776 0.80896 337.28 0.80896zM434.15552 316.8256c0 53.41696-43.45344 96.8704-96.8704 96.8704L179.328 413.696c-53.41696 0-96.8704-43.45344-96.8704-96.8704L82.4576 158.86848c0-53.41696 43.45344-96.8704 96.8704-96.8704l157.95712 0c53.41696 0 96.8704 43.45344 96.8704 96.8704L434.15552 316.8256z" p-id="24616" fill="#FFFFFF"></path><path d="M337.28 549.90848 179.328 549.90848c-87.15776 0-158.06464 70.90688-158.06464 158.06464l0 157.96224C21.26336 953.09312 92.17024 1024 179.328 1024l157.95712 0c87.15776 0 158.06464-70.90688 158.06464-158.06464l0-157.96224C495.34976 620.81536 424.43776 549.90848 337.28 549.90848zM434.15552 865.93536c0 53.41184-43.45344 96.8704-96.8704 96.8704L179.328 962.80576c-53.41696 0-96.8704-43.45856-96.8704-96.8704l0-157.96224c0-53.41184 43.45344-96.8704 96.8704-96.8704l157.95712 0c53.41696 0 96.8704 43.45856 96.8704 96.8704L434.15552 865.93536z" p-id="24617" fill="#FFFFFF"></path></svg>